<svg xmlns="http://www.w3.org/2000/svg" viewBox="0 0 680 480">
<text x="40" y="40" font-family="serif" font-size="15" font-weight="700" fill="#3D3D3A">Figure 1</text>
<text x="40" y="65" font-family="serif" font-size="15" font-style="italic" fill="#3D3D3A">Distribution of hospital length of stay among 100 patients</text>
<line x1="80" y1="380" x2="620" y2="380" stroke="#3D3D3A" stroke-width="1"/>
<line x1="80" y1="110" x2="80" y2="380" stroke="#3D3D3A" stroke-width="1"/>
<line x1="80" y1="350" x2="75" y2="350" stroke="#3D3D3A" stroke-width="0.5"/>
<line x1="80" y1="310" x2="75" y2="310" stroke="#3D3D3A" stroke-width="0.5"/>
<line x1="80" y1="270" x2="75" y2="270" stroke="#3D3D3A" stroke-width="0.5"/>
<line x1="80" y1="230" x2="75" y2="230" stroke="#3D3D3A" stroke-width="0.5"/>
<line x1="80" y1="190" x2="75" y2="190" stroke="#3D3D3A" stroke-width="0.5"/>
<line x1="80" y1="150" x2="75" y2="150" stroke="#3D3D3A" stroke-width="0.5"/>
<text x="70" y="354" font-family="sans-serif" font-size="11" text-anchor="end" fill="#73726c">5</text>
<text x="70" y="314" font-family="sans-serif" font-size="11" text-anchor="end" fill="#73726c">10</text>
<text x="70" y="274" font-family="sans-serif" font-size="11" text-anchor="end" fill="#73726c">15</text>
<text x="70" y="234" font-family="sans-serif" font-size="11" text-anchor="end" fill="#73726c">20</text>
<text x="70" y="194" font-family="sans-serif" font-size="11" text-anchor="end" fill="#73726c">25</text>
<text x="70" y="154" font-family="sans-serif" font-size="11" text-anchor="end" fill="#73726c">30</text>
<text x="35" y="245" font-family="sans-serif" font-size="13" text-anchor="middle" fill="#3D3D3A" transform="rotate(-90 35 245)">Number of patients</text>
<rect x="100" y="300" width="60" height="80" fill="#85B7EB" stroke="#185FA5" stroke-width="0.5"/>
<rect x="160" y="140" width="60" height="240" fill="#85B7EB" stroke="#185FA5" stroke-width="0.5"/>
<rect x="220" y="220" width="60" height="160" fill="#85B7EB" stroke="#185FA5" stroke-width="0.5"/>
<rect x="280" y="260" width="60" height="120" fill="#85B7EB" stroke="#185FA5" stroke-width="0.5"/>
<rect x="340" y="300" width="60" height="80" fill="#85B7EB" stroke="#185FA5" stroke-width="0.5"/>
<rect x="400" y="340" width="60" height="40" fill="#85B7EB" stroke="#185FA5" stroke-width="0.5"/>
<rect x="460" y="350" width="60" height="30" fill="#85B7EB" stroke="#185FA5" stroke-width="0.5"/>
<rect x="520" y="360" width="60" height="20" fill="#85B7EB" stroke="#185FA5" stroke-width="0.5"/>
<text x="130" y="398" font-family="sans-serif" font-size="11" text-anchor="middle" fill="#73726c">1-2</text>
<text x="190" y="398" font-family="sans-serif" font-size="11" text-anchor="middle" fill="#73726c">3-4</text>
<text x="250" y="398" font-family="sans-serif" font-size="11" text-anchor="middle" fill="#73726c">5-6</text>
<text x="310" y="398" font-family="sans-serif" font-size="11" text-anchor="middle" fill="#73726c">7-8</text>
<text x="370" y="398" font-family="sans-serif" font-size="11" text-anchor="middle" fill="#73726c">9-10</text>
<text x="430" y="398" font-family="sans-serif" font-size="11" text-anchor="middle" fill="#73726c">11-12</text>
<text x="490" y="398" font-family="sans-serif" font-size="11" text-anchor="middle" fill="#73726c">13-14</text>
<text x="550" y="398" font-family="sans-serif" font-size="11" text-anchor="middle" fill="#73726c">15+</text>
<text x="340" y="425" font-family="sans-serif" font-size="13" text-anchor="middle" fill="#3D3D3A">Length of stay (days)</text>
<text x="40" y="460" font-family="serif" font-size="13" fill="#3D3D3A"><tspan font-style="italic">Note.</tspan> Data from a cross-sectional study of inpatient admissions during March 2024.</text>
</svg>