<svg xmlns="http://www.w3.org/2000/svg" viewBox="0 0 680 420">
<text x="340" y="30" font-family="sans-serif" font-size="16" font-weight="600" text-anchor="middle" fill="#3D3D3A">Binomial distribution example</text>
<text x="340" y="50" font-family="sans-serif" font-size="13" text-anchor="middle" fill="#73726c">Out of 20 vaccinated people, how many develop immunity? (n = 20, p = 0.50)</text>
<line x1="80" y1="340" x2="640" y2="340" stroke="#3D3D3A" stroke-width="1"/>
<line x1="80" y1="80" x2="80" y2="340" stroke="#3D3D3A" stroke-width="1"/>
<line x1="80" y1="320" x2="75" y2="320" stroke="#3D3D3A" stroke-width="0.5"/>
<line x1="80" y1="280" x2="75" y2="280" stroke="#3D3D3A" stroke-width="0.5"/>
<line x1="80" y1="240" x2="75" y2="240" stroke="#3D3D3A" stroke-width="0.5"/>
<line x1="80" y1="200" x2="75" y2="200" stroke="#3D3D3A" stroke-width="0.5"/>
<line x1="80" y1="160" x2="75" y2="160" stroke="#3D3D3A" stroke-width="0.5"/>
<line x1="80" y1="120" x2="75" y2="120" stroke="#3D3D3A" stroke-width="0.5"/>
<text x="70" y="324" font-family="sans-serif" font-size="10" text-anchor="end" fill="#73726c">0.03</text>
<text x="70" y="284" font-family="sans-serif" font-size="10" text-anchor="end" fill="#73726c">0.06</text>
<text x="70" y="244" font-family="sans-serif" font-size="10" text-anchor="end" fill="#73726c">0.09</text>
<text x="70" y="204" font-family="sans-serif" font-size="10" text-anchor="end" fill="#73726c">0.12</text>
<text x="70" y="164" font-family="sans-serif" font-size="10" text-anchor="end" fill="#73726c">0.15</text>
<text x="70" y="124" font-family="sans-serif" font-size="10" text-anchor="end" fill="#73726c">0.18</text>
<text x="40" y="210" font-family="sans-serif" font-size="13" text-anchor="middle" fill="#3D3D3A" transform="rotate(-90 40 210)">Probability</text>
<rect x="92" y="339" width="24" height="1" fill="#85B7EB" stroke="#185FA5" stroke-width="0.3"/>
<rect x="120" y="339" width="24" height="1" fill="#85B7EB" stroke="#185FA5" stroke-width="0.3"/>
<rect x="148" y="338" width="24" height="2" fill="#85B7EB" stroke="#185FA5" stroke-width="0.3"/>
<rect x="176" y="335" width="24" height="5" fill="#85B7EB" stroke="#185FA5" stroke-width="0.5"/>
<rect x="204" y="326" width="24" height="14" fill="#85B7EB" stroke="#185FA5" stroke-width="0.5"/>
<rect x="232" y="306" width="24" height="34" fill="#85B7EB" stroke="#185FA5" stroke-width="0.5"/>
<rect x="260" y="275" width="24" height="65" fill="#85B7EB" stroke="#185FA5" stroke-width="0.5"/>
<rect x="288" y="234" width="24" height="106" fill="#85B7EB" stroke="#185FA5" stroke-width="0.5"/>
<rect x="316" y="186" width="24" height="154" fill="#85B7EB" stroke="#185FA5" stroke-width="0.5"/>
<rect x="344" y="143" width="24" height="197" fill="#85B7EB" stroke="#185FA5" stroke-width="0.5"/>
<rect x="372" y="115" width="24" height="225" fill="#85B7EB" stroke="#185FA5" stroke-width="0.5"/>
<rect x="400" y="143" width="24" height="197" fill="#85B7EB" stroke="#185FA5" stroke-width="0.5"/>
<rect x="428" y="186" width="24" height="154" fill="#85B7EB" stroke="#185FA5" stroke-width="0.5"/>
<rect x="456" y="234" width="24" height="106" fill="#85B7EB" stroke="#185FA5" stroke-width="0.5"/>
<rect x="484" y="275" width="24" height="65" fill="#85B7EB" stroke="#185FA5" stroke-width="0.5"/>
<rect x="512" y="306" width="24" height="34" fill="#85B7EB" stroke="#185FA5" stroke-width="0.5"/>
<rect x="540" y="326" width="24" height="14" fill="#85B7EB" stroke="#185FA5" stroke-width="0.5"/>
<rect x="568" y="335" width="24" height="5" fill="#85B7EB" stroke="#185FA5" stroke-width="0.5"/>
<rect x="596" y="338" width="24" height="2" fill="#85B7EB" stroke="#185FA5" stroke-width="0.3"/>
<rect x="624" y="339" width="16" height="1" fill="#85B7EB" stroke="#185FA5" stroke-width="0.3"/>
<text x="104" y="358" font-family="sans-serif" font-size="10" text-anchor="middle" fill="#73726c">0</text>
<text x="160" y="358" font-family="sans-serif" font-size="10" text-anchor="middle" fill="#73726c">2</text>
<text x="216" y="358" font-family="sans-serif" font-size="10" text-anchor="middle" fill="#73726c">4</text>
<text x="272" y="358" font-family="sans-serif" font-size="10" text-anchor="middle" fill="#73726c">6</text>
<text x="328" y="358" font-family="sans-serif" font-size="10" text-anchor="middle" fill="#73726c">8</text>
<text x="384" y="358" font-family="sans-serif" font-size="10" text-anchor="middle" fill="#73726c">10</text>
<text x="440" y="358" font-family="sans-serif" font-size="10" text-anchor="middle" fill="#73726c">12</text>
<text x="496" y="358" font-family="sans-serif" font-size="10" text-anchor="middle" fill="#73726c">14</text>
<text x="552" y="358" font-family="sans-serif" font-size="10" text-anchor="middle" fill="#73726c">16</text>
<text x="608" y="358" font-family="sans-serif" font-size="10" text-anchor="middle" fill="#73726c">18</text>
<text x="340" y="385" font-family="sans-serif" font-size="13" text-anchor="middle" fill="#3D3D3A">Number who develop immunity (out of 20)</text>
<text x="340" y="405" font-family="sans-serif" font-size="11" text-anchor="middle" fill="#73726c" font-style="italic">Mean (μ) = np = 10  ·  Standard deviation (σ) ≈ 2.24</text>
</svg>