<svg xmlns="http://www.w3.org/2000/svg" viewBox="0 0 680 420">
<text x="340" y="30" font-family="sans-serif" font-size="16" font-weight="600" text-anchor="middle" fill="#3D3D3A">Histogram of hospital length of stay</text>
<line x1="80" y1="340" x2="620" y2="340" stroke="#3D3D3A" stroke-width="1"/>
<line x1="80" y1="60" x2="80" y2="340" stroke="#3D3D3A" stroke-width="1"/>
<line x1="80" y1="320" x2="75" y2="320" stroke="#3D3D3A" stroke-width="0.5"/>
<line x1="80" y1="280" x2="75" y2="280" stroke="#3D3D3A" stroke-width="0.5"/>
<line x1="80" y1="240" x2="75" y2="240" stroke="#3D3D3A" stroke-width="0.5"/>
<line x1="80" y1="200" x2="75" y2="200" stroke="#3D3D3A" stroke-width="0.5"/>
<line x1="80" y1="160" x2="75" y2="160" stroke="#3D3D3A" stroke-width="0.5"/>
<line x1="80" y1="120" x2="75" y2="120" stroke="#3D3D3A" stroke-width="0.5"/>
<text x="70" y="324" font-family="sans-serif" font-size="11" text-anchor="end" fill="#73726c">1</text>
<text x="70" y="284" font-family="sans-serif" font-size="11" text-anchor="end" fill="#73726c">2</text>
<text x="70" y="244" font-family="sans-serif" font-size="11" text-anchor="end" fill="#73726c">3</text>
<text x="70" y="204" font-family="sans-serif" font-size="11" text-anchor="end" fill="#73726c">4</text>
<text x="70" y="164" font-family="sans-serif" font-size="11" text-anchor="end" fill="#73726c">5</text>
<text x="70" y="124" font-family="sans-serif" font-size="11" text-anchor="end" fill="#73726c">6</text>
<text x="40" y="200" font-family="sans-serif" font-size="13" text-anchor="middle" fill="#3D3D3A" transform="rotate(-90 40 200)">Number of patients</text>
<rect x="100" y="280" width="60" height="60" fill="#85B7EB" stroke="#185FA5" stroke-width="0.5"/>
<rect x="160" y="120" width="60" height="220" fill="#85B7EB" stroke="#185FA5" stroke-width="0.5"/>
<rect x="220" y="200" width="60" height="140" fill="#85B7EB" stroke="#185FA5" stroke-width="0.5"/>
<rect x="280" y="240" width="60" height="100" fill="#85B7EB" stroke="#185FA5" stroke-width="0.5"/>
<rect x="340" y="280" width="60" height="60" fill="#85B7EB" stroke="#185FA5" stroke-width="0.5"/>
<rect x="400" y="320" width="60" height="20" fill="#85B7EB" stroke="#185FA5" stroke-width="0.5"/>
<rect x="460" y="320" width="60" height="20" fill="#85B7EB" stroke="#185FA5" stroke-width="0.5"/>
<rect x="520" y="320" width="60" height="20" fill="#85B7EB" stroke="#185FA5" stroke-width="0.5"/>
<text x="130" y="358" font-family="sans-serif" font-size="11" text-anchor="middle" fill="#73726c">0-2</text>
<text x="190" y="358" font-family="sans-serif" font-size="11" text-anchor="middle" fill="#73726c">3-4</text>
<text x="250" y="358" font-family="sans-serif" font-size="11" text-anchor="middle" fill="#73726c">5-6</text>
<text x="310" y="358" font-family="sans-serif" font-size="11" text-anchor="middle" fill="#73726c">7-8</text>
<text x="370" y="358" font-family="sans-serif" font-size="11" text-anchor="middle" fill="#73726c">9-10</text>
<text x="430" y="358" font-family="sans-serif" font-size="11" text-anchor="middle" fill="#73726c">11-12</text>
<text x="490" y="358" font-family="sans-serif" font-size="11" text-anchor="middle" fill="#73726c">13-14</text>
<text x="550" y="358" font-family="sans-serif" font-size="11" text-anchor="middle" fill="#73726c">15-16</text>
<text x="340" y="390" font-family="sans-serif" font-size="13" text-anchor="middle" fill="#3D3D3A">Length of stay (days)</text>
</svg>