<svg xmlns="http://www.w3.org/2000/svg" viewBox="0 0 680 420">
<text x="340" y="30" font-family="sans-serif" font-size="16" font-weight="600" text-anchor="middle" fill="#3D3D3A">Patient race/ethnicity in sample</text>
<line x1="120" y1="340" x2="620" y2="340" stroke="#3D3D3A" stroke-width="1"/>
<line x1="120" y1="60" x2="120" y2="340" stroke="#3D3D3A" stroke-width="1"/>
<line x1="120" y1="290" x2="115" y2="290" stroke="#3D3D3A" stroke-width="0.5"/>
<line x1="120" y1="240" x2="115" y2="240" stroke="#3D3D3A" stroke-width="0.5"/>
<line x1="120" y1="190" x2="115" y2="190" stroke="#3D3D3A" stroke-width="0.5"/>
<line x1="120" y1="140" x2="115" y2="140" stroke="#3D3D3A" stroke-width="0.5"/>
<line x1="120" y1="90" x2="115" y2="90" stroke="#3D3D3A" stroke-width="0.5"/>
<text x="110" y="294" font-family="sans-serif" font-size="11" text-anchor="end" fill="#73726c">10</text>
<text x="110" y="244" font-family="sans-serif" font-size="11" text-anchor="end" fill="#73726c">20</text>
<text x="110" y="194" font-family="sans-serif" font-size="11" text-anchor="end" fill="#73726c">30</text>
<text x="110" y="144" font-family="sans-serif" font-size="11" text-anchor="end" fill="#73726c">40</text>
<text x="110" y="94" font-family="sans-serif" font-size="11" text-anchor="end" fill="#73726c">50</text>
<text x="65" y="200" font-family="sans-serif" font-size="13" text-anchor="middle" fill="#3D3D3A" transform="rotate(-90 65 200)">Number of patients</text>
<rect x="160" y="80" width="80" height="260" fill="#85B7EB" stroke="#185FA5" stroke-width="0.5"/>
<rect x="270" y="200" width="80" height="140" fill="#85B7EB" stroke="#185FA5" stroke-width="0.5"/>
<rect x="380" y="260" width="80" height="80" fill="#85B7EB" stroke="#185FA5" stroke-width="0.5"/>
<rect x="490" y="300" width="80" height="40" fill="#85B7EB" stroke="#185FA5" stroke-width="0.5"/>
<text x="200" y="358" font-family="sans-serif" font-size="12" text-anchor="middle" fill="#3D3D3A">White</text>
<text x="310" y="358" font-family="sans-serif" font-size="12" text-anchor="middle" fill="#3D3D3A">Black</text>
<text x="420" y="358" font-family="sans-serif" font-size="12" text-anchor="middle" fill="#3D3D3A">Asian</text>
<text x="530" y="358" font-family="sans-serif" font-size="12" text-anchor="middle" fill="#3D3D3A">Other</text>
<text x="200" y="75" font-family="sans-serif" font-size="11" text-anchor="middle" fill="#3D3D3A">52</text>
<text x="310" y="195" font-family="sans-serif" font-size="11" text-anchor="middle" fill="#3D3D3A">28</text>
<text x="420" y="255" font-family="sans-serif" font-size="11" text-anchor="middle" fill="#3D3D3A">12</text>
<text x="530" y="295" font-family="sans-serif" font-size="11" text-anchor="middle" fill="#3D3D3A">8</text>
<text x="370" y="390" font-family="sans-serif" font-size="13" text-anchor="middle" fill="#3D3D3A">Race/ethnicity</text>
</svg>