<svg xmlns="http://www.w3.org/2000/svg" viewBox="0 0 680 420">
<text x="340" y="30" font-family="sans-serif" font-size="16" font-weight="600" text-anchor="middle" fill="#3D3D3A">Length of stay vs. age in 30 patients</text>
<line x1="100" y1="340" x2="620" y2="340" stroke="#3D3D3A" stroke-width="1"/>
<line x1="100" y1="60" x2="100" y2="340" stroke="#3D3D3A" stroke-width="1"/>
<line x1="100" y1="300" x2="95" y2="300" stroke="#3D3D3A" stroke-width="0.5"/>
<line x1="100" y1="260" x2="95" y2="260" stroke="#3D3D3A" stroke-width="0.5"/>
<line x1="100" y1="220" x2="95" y2="220" stroke="#3D3D3A" stroke-width="0.5"/>
<line x1="100" y1="180" x2="95" y2="180" stroke="#3D3D3A" stroke-width="0.5"/>
<line x1="100" y1="140" x2="95" y2="140" stroke="#3D3D3A" stroke-width="0.5"/>
<line x1="100" y1="100" x2="95" y2="100" stroke="#3D3D3A" stroke-width="0.5"/>
<text x="90" y="304" font-family="sans-serif" font-size="11" text-anchor="end" fill="#73726c">2</text>
<text x="90" y="264" font-family="sans-serif" font-size="11" text-anchor="end" fill="#73726c">4</text>
<text x="90" y="224" font-family="sans-serif" font-size="11" text-anchor="end" fill="#73726c">6</text>
<text x="90" y="184" font-family="sans-serif" font-size="11" text-anchor="end" fill="#73726c">8</text>
<text x="90" y="144" font-family="sans-serif" font-size="11" text-anchor="end" fill="#73726c">10</text>
<text x="90" y="104" font-family="sans-serif" font-size="11" text-anchor="end" fill="#73726c">12</text>
<text x="45" y="200" font-family="sans-serif" font-size="13" text-anchor="middle" fill="#3D3D3A" transform="rotate(-90 45 200)">Length of stay (days)</text>
<line x1="150" y1="340" x2="150" y2="345" stroke="#3D3D3A" stroke-width="0.5"/>
<line x1="240" y1="340" x2="240" y2="345" stroke="#3D3D3A" stroke-width="0.5"/>
<line x1="330" y1="340" x2="330" y2="345" stroke="#3D3D3A" stroke-width="0.5"/>
<line x1="420" y1="340" x2="420" y2="345" stroke="#3D3D3A" stroke-width="0.5"/>
<line x1="510" y1="340" x2="510" y2="345" stroke="#3D3D3A" stroke-width="0.5"/>
<line x1="600" y1="340" x2="600" y2="345" stroke="#3D3D3A" stroke-width="0.5"/>
<text x="150" y="360" font-family="sans-serif" font-size="11" text-anchor="middle" fill="#73726c">20</text>
<text x="240" y="360" font-family="sans-serif" font-size="11" text-anchor="middle" fill="#73726c">30</text>
<text x="330" y="360" font-family="sans-serif" font-size="11" text-anchor="middle" fill="#73726c">40</text>
<text x="420" y="360" font-family="sans-serif" font-size="11" text-anchor="middle" fill="#73726c">50</text>
<text x="510" y="360" font-family="sans-serif" font-size="11" text-anchor="middle" fill="#73726c">60</text>
<text x="600" y="360" font-family="sans-serif" font-size="11" text-anchor="middle" fill="#73726c">70</text>
<text x="370" y="390" font-family="sans-serif" font-size="13" text-anchor="middle" fill="#3D3D3A">Age (years)</text>
<circle cx="155" cy="310" r="4" fill="#85B7EB" stroke="#185FA5" stroke-width="0.5"/>
<circle cx="178" cy="295" r="4" fill="#85B7EB" stroke="#185FA5" stroke-width="0.5"/>
<circle cx="195" cy="305" r="4" fill="#85B7EB" stroke="#185FA5" stroke-width="0.5"/>
<circle cx="215" cy="285" r="4" fill="#85B7EB" stroke="#185FA5" stroke-width="0.5"/>
<circle cx="235" cy="290" r="4" fill="#85B7EB" stroke="#185FA5" stroke-width="0.5"/>
<circle cx="248" cy="265" r="4" fill="#85B7EB" stroke="#185FA5" stroke-width="0.5"/>
<circle cx="270" cy="280" r="4" fill="#85B7EB" stroke="#185FA5" stroke-width="0.5"/>
<circle cx="290" cy="255" r="4" fill="#85B7EB" stroke="#185FA5" stroke-width="0.5"/>
<circle cx="305" cy="270" r="4" fill="#85B7EB" stroke="#185FA5" stroke-width="0.5"/>
<circle cx="320" cy="245" r="4" fill="#85B7EB" stroke="#185FA5" stroke-width="0.5"/>
<circle cx="340" cy="255" r="4" fill="#85B7EB" stroke="#185FA5" stroke-width="0.5"/>
<circle cx="360" cy="230" r="4" fill="#85B7EB" stroke="#185FA5" stroke-width="0.5"/>
<circle cx="380" cy="240" r="4" fill="#85B7EB" stroke="#185FA5" stroke-width="0.5"/>
<circle cx="395" cy="220" r="4" fill="#85B7EB" stroke="#185FA5" stroke-width="0.5"/>
<circle cx="415" cy="225" r="4" fill="#85B7EB" stroke="#185FA5" stroke-width="0.5"/>
<circle cx="435" cy="205" r="4" fill="#85B7EB" stroke="#185FA5" stroke-width="0.5"/>
<circle cx="450" cy="215" r="4" fill="#85B7EB" stroke="#185FA5" stroke-width="0.5"/>
<circle cx="470" cy="195" r="4" fill="#85B7EB" stroke="#185FA5" stroke-width="0.5"/>
<circle cx="485" cy="200" r="4" fill="#85B7EB" stroke="#185FA5" stroke-width="0.5"/>
<circle cx="505" cy="180" r="4" fill="#85B7EB" stroke="#185FA5" stroke-width="0.5"/>
<circle cx="525" cy="190" r="4" fill="#85B7EB" stroke="#185FA5" stroke-width="0.5"/>
<circle cx="545" cy="170" r="4" fill="#85B7EB" stroke="#185FA5" stroke-width="0.5"/>
<circle cx="560" cy="175" r="4" fill="#85B7EB" stroke="#185FA5" stroke-width="0.5"/>
<circle cx="580" cy="155" r="4" fill="#85B7EB" stroke="#185FA5" stroke-width="0.5"/>
<circle cx="600" cy="160" r="4" fill="#85B7EB" stroke="#185FA5" stroke-width="0.5"/>
<circle cx="225" cy="270" r="4" fill="#85B7EB" stroke="#185FA5" stroke-width="0.5"/>
<circle cx="345" cy="265" r="4" fill="#85B7EB" stroke="#185FA5" stroke-width="0.5"/>
<circle cx="460" cy="230" r="4" fill="#85B7EB" stroke="#185FA5" stroke-width="0.5"/>
<circle cx="555" cy="200" r="4" fill="#85B7EB" stroke="#185FA5" stroke-width="0.5"/>
<circle cx="280" cy="295" r="4" fill="#85B7EB" stroke="#185FA5" stroke-width="0.5"/>
</svg>