<svg xmlns="http://www.w3.org/2000/svg" viewBox="0 0 680 600">
<text x="340" y="30" font-family="sans-serif" font-size="16" font-weight="600" text-anchor="middle" fill="#3D3D3A">What "95% confidence" actually means</text>
<text x="340" y="52" font-family="sans-serif" font-size="12" text-anchor="middle" fill="#73726c">If we ran the same study 20 times (different random sample each time), about 19 of our CIs would contain μ</text>
<line x1="350" y1="80" x2="350" y2="450" stroke="#A87B3D" stroke-width="2.5" stroke-dasharray="5 3"/>
<text x="350" y="74" font-family="sans-serif" font-size="13" font-weight="700" text-anchor="middle" fill="#A87B3D">True μ</text>
<line x1="313" y1="100" x2="379" y2="100" stroke="#185FA5" stroke-width="1.8"/>
<line x1="313" y1="96" x2="313" y2="104" stroke="#185FA5" stroke-width="1.8"/>
<line x1="379" y1="96" x2="379" y2="104" stroke="#185FA5" stroke-width="1.8"/>
<circle cx="346" cy="100" r="3" fill="#185FA5"/>
<text x="65" y="103" font-family="sans-serif" font-size="9" text-anchor="end" fill="#73726c">Sample 1</text>
<line x1="320" y1="117" x2="396" y2="117" stroke="#185FA5" stroke-width="1.8"/>
<line x1="320" y1="113" x2="320" y2="121" stroke="#185FA5" stroke-width="1.8"/>
<line x1="396" y1="113" x2="396" y2="121" stroke="#185FA5" stroke-width="1.8"/>
<circle cx="358" cy="117" r="3" fill="#185FA5"/>
<text x="65" y="120" font-family="sans-serif" font-size="9" text-anchor="end" fill="#73726c">Sample 2</text>
<line x1="312" y1="134" x2="372" y2="134" stroke="#185FA5" stroke-width="1.8"/>
<line x1="312" y1="130" x2="312" y2="138" stroke="#185FA5" stroke-width="1.8"/>
<line x1="372" y1="130" x2="372" y2="138" stroke="#185FA5" stroke-width="1.8"/>
<circle cx="342" cy="134" r="3" fill="#185FA5"/>
<text x="65" y="137" font-family="sans-serif" font-size="9" text-anchor="end" fill="#73726c">Sample 3</text>
<line x1="315" y1="151" x2="395" y2="151" stroke="#185FA5" stroke-width="1.8"/>
<line x1="315" y1="147" x2="315" y2="155" stroke="#185FA5" stroke-width="1.8"/>
<line x1="395" y1="147" x2="395" y2="155" stroke="#185FA5" stroke-width="1.8"/>
<circle cx="355" cy="151" r="3" fill="#185FA5"/>
<text x="65" y="154" font-family="sans-serif" font-size="9" text-anchor="end" fill="#73726c">Sample 4</text>
<line x1="335" y1="168" x2="391" y2="168" stroke="#185FA5" stroke-width="1.8"/>
<line x1="335" y1="164" x2="335" y2="172" stroke="#185FA5" stroke-width="1.8"/>
<line x1="391" y1="164" x2="391" y2="172" stroke="#185FA5" stroke-width="1.8"/>
<circle cx="363" cy="168" r="3" fill="#185FA5"/>
<text x="65" y="171" font-family="sans-serif" font-size="9" text-anchor="end" fill="#73726c">Sample 5</text>
<line x1="304" y1="185" x2="374" y2="185" stroke="#185FA5" stroke-width="1.8"/>
<line x1="304" y1="181" x2="304" y2="189" stroke="#185FA5" stroke-width="1.8"/>
<line x1="374" y1="181" x2="374" y2="189" stroke="#185FA5" stroke-width="1.8"/>
<circle cx="339" cy="185" r="3" fill="#185FA5"/>
<text x="65" y="188" font-family="sans-serif" font-size="9" text-anchor="end" fill="#73726c">Sample 6</text>
<line x1="328" y1="202" x2="394" y2="202" stroke="#185FA5" stroke-width="1.8"/>
<line x1="328" y1="198" x2="328" y2="206" stroke="#185FA5" stroke-width="1.8"/>
<line x1="394" y1="198" x2="394" y2="206" stroke="#185FA5" stroke-width="1.8"/>
<circle cx="361" cy="202" r="3" fill="#185FA5"/>
<text x="65" y="205" font-family="sans-serif" font-size="9" text-anchor="end" fill="#73726c">Sample 7</text>
<line x1="338" y1="219" x2="402" y2="219" stroke="#185FA5" stroke-width="1.8"/>
<line x1="338" y1="215" x2="338" y2="223" stroke="#185FA5" stroke-width="1.8"/>
<line x1="402" y1="215" x2="402" y2="223" stroke="#185FA5" stroke-width="1.8"/>
<circle cx="370" cy="219" r="3" fill="#185FA5"/>
<text x="65" y="222" font-family="sans-serif" font-size="9" text-anchor="end" fill="#73726c">Sample 8</text>
<line x1="309" y1="236" x2="381" y2="236" stroke="#185FA5" stroke-width="1.8"/>
<line x1="309" y1="232" x2="309" y2="240" stroke="#185FA5" stroke-width="1.8"/>
<line x1="381" y1="232" x2="381" y2="240" stroke="#185FA5" stroke-width="1.8"/>
<circle cx="345" cy="236" r="3" fill="#185FA5"/>
<text x="65" y="239" font-family="sans-serif" font-size="9" text-anchor="end" fill="#73726c">Sample 9</text>
<line x1="380" y1="253" x2="440" y2="253" stroke="#993C1D" stroke-width="2.2"/>
<line x1="380" y1="249" x2="380" y2="257" stroke="#993C1D" stroke-width="2.2"/>
<line x1="440" y1="249" x2="440" y2="257" stroke="#993C1D" stroke-width="2.2"/>
<circle cx="410" cy="253" r="3.5" fill="#993C1D"/>
<text x="65" y="256" font-family="sans-serif" font-size="10" font-weight="700" text-anchor="end" fill="#993C1D">Sample 10 ✗</text>
<line x1="315" y1="270" x2="381" y2="270" stroke="#185FA5" stroke-width="1.8"/>
<line x1="315" y1="266" x2="315" y2="274" stroke="#185FA5" stroke-width="1.8"/>
<line x1="381" y1="266" x2="381" y2="274" stroke="#185FA5" stroke-width="1.8"/>
<circle cx="348" cy="270" r="3" fill="#185FA5"/>
<text x="65" y="273" font-family="sans-serif" font-size="9" text-anchor="end" fill="#73726c">Sample 11</text>
<line x1="333" y1="287" x2="391" y2="287" stroke="#185FA5" stroke-width="1.8"/>
<line x1="333" y1="283" x2="333" y2="291" stroke="#185FA5" stroke-width="1.8"/>
<line x1="391" y1="283" x2="391" y2="291" stroke="#185FA5" stroke-width="1.8"/>
<circle cx="362" cy="287" r="3" fill="#185FA5"/>
<text x="65" y="290" font-family="sans-serif" font-size="9" text-anchor="end" fill="#73726c">Sample 12</text>
<line x1="307" y1="304" x2="375" y2="304" stroke="#185FA5" stroke-width="1.8"/>
<line x1="307" y1="300" x2="307" y2="308" stroke="#185FA5" stroke-width="1.8"/>
<line x1="375" y1="300" x2="375" y2="308" stroke="#185FA5" stroke-width="1.8"/>
<circle cx="341" cy="304" r="3" fill="#185FA5"/>
<text x="65" y="307" font-family="sans-serif" font-size="9" text-anchor="end" fill="#73726c">Sample 13</text>
<line x1="318" y1="321" x2="392" y2="321" stroke="#185FA5" stroke-width="1.8"/>
<line x1="318" y1="317" x2="318" y2="325" stroke="#185FA5" stroke-width="1.8"/>
<line x1="392" y1="317" x2="392" y2="325" stroke="#185FA5" stroke-width="1.8"/>
<circle cx="355" cy="321" r="3" fill="#185FA5"/>
<text x="65" y="324" font-family="sans-serif" font-size="9" text-anchor="end" fill="#73726c">Sample 14</text>
<line x1="326" y1="338" x2="390" y2="338" stroke="#185FA5" stroke-width="1.8"/>
<line x1="326" y1="334" x2="326" y2="342" stroke="#185FA5" stroke-width="1.8"/>
<line x1="390" y1="334" x2="390" y2="342" stroke="#185FA5" stroke-width="1.8"/>
<circle cx="358" cy="338" r="3" fill="#185FA5"/>
<text x="65" y="341" font-family="sans-serif" font-size="9" text-anchor="end" fill="#73726c">Sample 15</text>
<line x1="308" y1="355" x2="378" y2="355" stroke="#185FA5" stroke-width="1.8"/>
<line x1="308" y1="351" x2="308" y2="359" stroke="#185FA5" stroke-width="1.8"/>
<line x1="378" y1="351" x2="378" y2="359" stroke="#185FA5" stroke-width="1.8"/>
<circle cx="343" cy="355" r="3" fill="#185FA5"/>
<text x="65" y="358" font-family="sans-serif" font-size="9" text-anchor="end" fill="#73726c">Sample 16</text>
<line x1="322" y1="372" x2="382" y2="372" stroke="#185FA5" stroke-width="1.8"/>
<line x1="322" y1="368" x2="322" y2="376" stroke="#185FA5" stroke-width="1.8"/>
<line x1="382" y1="368" x2="382" y2="376" stroke="#185FA5" stroke-width="1.8"/>
<circle cx="352" cy="372" r="3" fill="#185FA5"/>
<text x="65" y="375" font-family="sans-serif" font-size="9" text-anchor="end" fill="#73726c">Sample 17</text>
<line x1="339" y1="389" x2="397" y2="389" stroke="#185FA5" stroke-width="1.8"/>
<line x1="339" y1="385" x2="339" y2="393" stroke="#185FA5" stroke-width="1.8"/>
<line x1="397" y1="385" x2="397" y2="393" stroke="#185FA5" stroke-width="1.8"/>
<circle cx="368" cy="389" r="3" fill="#185FA5"/>
<text x="65" y="392" font-family="sans-serif" font-size="9" text-anchor="end" fill="#73726c">Sample 18</text>
<line x1="318" y1="406" x2="388" y2="406" stroke="#185FA5" stroke-width="1.8"/>
<line x1="318" y1="402" x2="318" y2="410" stroke="#185FA5" stroke-width="1.8"/>
<line x1="388" y1="402" x2="388" y2="410" stroke="#185FA5" stroke-width="1.8"/>
<circle cx="353" cy="406" r="3" fill="#185FA5"/>
<text x="65" y="409" font-family="sans-serif" font-size="9" text-anchor="end" fill="#73726c">Sample 19</text>
<line x1="314" y1="423" x2="378" y2="423" stroke="#185FA5" stroke-width="1.8"/>
<line x1="314" y1="419" x2="314" y2="427" stroke="#185FA5" stroke-width="1.8"/>
<line x1="378" y1="419" x2="378" y2="427" stroke="#185FA5" stroke-width="1.8"/>
<circle cx="346" cy="423" r="3" fill="#185FA5"/>
<text x="65" y="426" font-family="sans-serif" font-size="9" text-anchor="end" fill="#73726c">Sample 20</text>
<line x1="80" y1="455" x2="620" y2="455" stroke="#3D3D3A" stroke-width="0.8"/>
<text x="350" y="472" font-family="sans-serif" font-size="11" text-anchor="middle" fill="#3D3D3A">Value being estimated</text>
<rect x="15" y="485" width="650" height="105" rx="6" fill="#F5F0E6" stroke="#73726c" stroke-width="0.5"/>
<text x="340" y="505" font-family="sans-serif" font-size="13" font-weight="700" text-anchor="middle" fill="#3D3D3A">The crucial distinction</text>
<text x="35" y="528" font-family="sans-serif" font-size="11" fill="#993C1D"><tspan font-weight="700">✗ WRONG (what most students assume):</tspan> "There is a 95% chance that μ is in THIS specific interval."</text>
<text x="35" y="552" font-family="sans-serif" font-size="11" fill="#0F6E56"><tspan font-weight="700">✓ RIGHT:</tspan> "If we repeated this procedure many times, 95% of resulting intervals would contain μ.</text>
<text x="35" y="567" font-family="sans-serif" font-size="11" fill="#0F6E56" font-style="italic">THIS particular interval — from our one actual study — either contains μ or it doesn't. We can't tell which."</text>
<text x="340" y="585" font-family="sans-serif" font-size="11" font-style="italic" text-anchor="middle" fill="#73726c">The "95%" describes the long-run behavior of the procedure, not this one specific interval.</text>
</svg>