<svg width="100%" viewBox="0 0 680 400" role="img" xmlns="http://www.w3.org/2000/svg">
<title>Kaplan-Meier survival curves for two groups</title>
<desc>Two step-function KM curves. Group A stays higher throughout. Group B drops faster. Censoring tick marks appear on both curves. Curves are labeled A and B at the right edge.</desc>
<line x1="80" y1="40" x2="80" y2="300" stroke="#888780" stroke-width="1" opacity="0.4"/>
<line x1="80" y1="300" x2="630" y2="300" stroke="#888780" stroke-width="1" opacity="0.4"/>
<line x1="78" y1="40"  x2="630" y2="40"  stroke="#888780" stroke-width="0.5" stroke-dasharray="3 4" opacity="0.2"/>
<line x1="78" y1="100" x2="630" y2="100" stroke="#888780" stroke-width="0.5" stroke-dasharray="3 4" opacity="0.2"/>
<line x1="78" y1="170" x2="630" y2="170" stroke="#888780" stroke-width="0.5" stroke-dasharray="3 4" opacity="0.2"/>
<line x1="78" y1="235" x2="630" y2="235" stroke="#888780" stroke-width="0.5" stroke-dasharray="3 4" opacity="0.2"/>
<text x="70" y="40"  text-anchor="end" dominant-baseline="central" font-family="sans-serif" font-size="12" fill="#555550">1.0</text>
<text x="70" y="100" text-anchor="end" dominant-baseline="central" font-family="sans-serif" font-size="12" fill="#555550">0.75</text>
<text x="70" y="170" text-anchor="end" dominant-baseline="central" font-family="sans-serif" font-size="12" fill="#555550">0.50</text>
<text x="70" y="235" text-anchor="end" dominant-baseline="central" font-family="sans-serif" font-size="12" fill="#555550">0.25</text>
<text x="70" y="300" text-anchor="end" dominant-baseline="central" font-family="sans-serif" font-size="12" fill="#555550">0</text>
<line x1="80"  y1="300" x2="80"  y2="306" stroke="#888780" stroke-width="1" opacity="0.4"/>
<line x1="183" y1="300" x2="183" y2="306" stroke="#888780" stroke-width="1" opacity="0.4"/>
<line x1="286" y1="300" x2="286" y2="306" stroke="#888780" stroke-width="1" opacity="0.4"/>
<line x1="389" y1="300" x2="389" y2="306" stroke="#888780" stroke-width="1" opacity="0.4"/>
<line x1="492" y1="300" x2="492" y2="306" stroke="#888780" stroke-width="1" opacity="0.4"/>
<line x1="595" y1="300" x2="595" y2="306" stroke="#888780" stroke-width="1" opacity="0.4"/>
<text x="80"  y="318" text-anchor="middle" font-family="sans-serif" font-size="12" fill="#555550">0</text>
<text x="183" y="318" text-anchor="middle" font-family="sans-serif" font-size="12" fill="#555550">6</text>
<text x="286" y="318" text-anchor="middle" font-family="sans-serif" font-size="12" fill="#555550">12</text>
<text x="389" y="318" text-anchor="middle" font-family="sans-serif" font-size="12" fill="#555550">18</text>
<text x="492" y="318" text-anchor="middle" font-family="sans-serif" font-size="12" fill="#555550">24</text>
<text x="595" y="318" text-anchor="middle" font-family="sans-serif" font-size="12" fill="#555550">30</text>
<text x="350" y="338" text-anchor="middle" font-family="sans-serif" font-size="12" fill="#555550">Time (months)</text>
<text x="22" y="170" text-anchor="middle" font-family="sans-serif" font-size="12" fill="#555550" transform="rotate(-90,22,170)">Survival probability S(t)</text>
<line x1="80"  y1="40"  x2="130" y2="40"  stroke="#185FA5" stroke-width="2.5" stroke-linecap="round"/>
<line x1="130" y1="40"  x2="130" y2="57"  stroke="#185FA5" stroke-width="2.5" stroke-linecap="round"/>
<line x1="130" y1="57"  x2="183" y2="57"  stroke="#185FA5" stroke-width="2.5" stroke-linecap="round"/>
<line x1="183" y1="57"  x2="183" y2="80"  stroke="#185FA5" stroke-width="2.5" stroke-linecap="round"/>
<line x1="183" y1="80"  x2="235" y2="80"  stroke="#185FA5" stroke-width="2.5" stroke-linecap="round"/>
<line x1="235" y1="80"  x2="235" y2="105" stroke="#185FA5" stroke-width="2.5" stroke-linecap="round"/>
<line x1="235" y1="105" x2="286" y2="105" stroke="#185FA5" stroke-width="2.5" stroke-linecap="round"/>
<line x1="286" y1="105" x2="286" y2="132" stroke="#185FA5" stroke-width="2.5" stroke-linecap="round"/>
<line x1="286" y1="132" x2="355" y2="132" stroke="#185FA5" stroke-width="2.5" stroke-linecap="round"/>
<line x1="355" y1="132" x2="355" y2="153" stroke="#185FA5" stroke-width="2.5" stroke-linecap="round"/>
<line x1="355" y1="153" x2="492" y2="153" stroke="#185FA5" stroke-width="2.5" stroke-linecap="round"/>
<line x1="492" y1="153" x2="492" y2="170" stroke="#185FA5" stroke-width="2.5" stroke-linecap="round"/>
<line x1="492" y1="170" x2="595" y2="170" stroke="#185FA5" stroke-width="2.5" stroke-linecap="round"/>
<line x1="163" y1="48"  x2="163" y2="66"  stroke="#185FA5" stroke-width="2" stroke-linecap="round"/>
<line x1="218" y1="71"  x2="218" y2="89"  stroke="#185FA5" stroke-width="2" stroke-linecap="round"/>
<line x1="322" y1="123" x2="322" y2="141" stroke="#185FA5" stroke-width="2" stroke-linecap="round"/>
<text x="602" y="170" dominant-baseline="central" font-family="sans-serif" font-size="13" font-weight="600" fill="#185FA5">Group A</text>
<line x1="80"  y1="40"  x2="112" y2="40"  stroke="#1D9E75" stroke-width="2.5" stroke-linecap="round"/>
<line x1="112" y1="40"  x2="112" y2="72"  stroke="#1D9E75" stroke-width="2.5" stroke-linecap="round"/>
<line x1="112" y1="72"  x2="163" y2="72"  stroke="#1D9E75" stroke-width="2.5" stroke-linecap="round"/>
<line x1="163" y1="72"  x2="163" y2="113" stroke="#1D9E75" stroke-width="2.5" stroke-linecap="round"/>
<line x1="163" y1="113" x2="218" y2="113" stroke="#1D9E75" stroke-width="2.5" stroke-linecap="round"/>
<line x1="218" y1="113" x2="218" y2="150" stroke="#1D9E75" stroke-width="2.5" stroke-linecap="round"/>
<line x1="218" y1="150" x2="270" y2="150" stroke="#1D9E75" stroke-width="2.5" stroke-linecap="round"/>
<line x1="270" y1="150" x2="270" y2="192" stroke="#1D9E75" stroke-width="2.5" stroke-linecap="round"/>
<line x1="270" y1="192" x2="355" y2="192" stroke="#1D9E75" stroke-width="2.5" stroke-linecap="round"/>
<line x1="355" y1="192" x2="355" y2="222" stroke="#1D9E75" stroke-width="2.5" stroke-linecap="round"/>
<line x1="355" y1="222" x2="441" y2="222" stroke="#1D9E75" stroke-width="2.5" stroke-linecap="round"/>
<line x1="441" y1="222" x2="441" y2="258" stroke="#1D9E75" stroke-width="2.5" stroke-linecap="round"/>
<line x1="441" y1="258" x2="595" y2="258" stroke="#1D9E75" stroke-width="2.5" stroke-linecap="round"/>
<line x1="143" y1="63"  x2="143" y2="81"  stroke="#1D9E75" stroke-width="2" stroke-linecap="round"/>
<line x1="248" y1="141" x2="248" y2="159" stroke="#1D9E75" stroke-width="2" stroke-linecap="round"/>
<line x1="408" y1="213" x2="408" y2="231" stroke="#1D9E75" stroke-width="2" stroke-linecap="round"/>
<text x="602" y="258" dominant-baseline="central" font-family="sans-serif" font-size="13" font-weight="600" fill="#1D9E75">Group B</text>
<line x1="100" y1="372" x2="130" y2="372" stroke="#888780" stroke-width="2" stroke-linecap="round" opacity="0.5"/>
<line x1="115" y1="363" x2="115" y2="381" stroke="#888780" stroke-width="2" stroke-linecap="round"/>
<text x="140" y="372" dominant-baseline="central" font-family="sans-serif" font-size="12" fill="#555550">Censored observation — participant event-free at last contact</text>
</svg>
