<svg xmlns="http://www.w3.org/2000/svg" viewBox="0 0 680 380">
<rect x="80" y="290" width="40" height="10" fill="#85B7EB" stroke="#185FA5" stroke-width="0.5"/>
<rect x="125" y="285" width="40" height="15" fill="#85B7EB" stroke="#185FA5" stroke-width="0.5"/>
<rect x="170" y="280" width="40" height="20" fill="#85B7EB" stroke="#185FA5" stroke-width="0.5"/>
<rect x="215" y="270" width="40" height="30" fill="#85B7EB" stroke="#185FA5" stroke-width="0.5"/>
<rect x="260" y="260" width="40" height="40" fill="#85B7EB" stroke="#185FA5" stroke-width="0.5"/>
<rect x="305" y="240" width="40" height="60" fill="#85B7EB" stroke="#185FA5" stroke-width="0.5"/>
<rect x="350" y="210" width="40" height="90" fill="#85B7EB" stroke="#185FA5" stroke-width="0.5"/>
<rect x="395" y="170" width="40" height="130" fill="#85B7EB" stroke="#185FA5" stroke-width="0.5"/>
<rect x="440" y="120" width="40" height="180" fill="#85B7EB" stroke="#185FA5" stroke-width="0.5"/>
<rect x="485" y="100" width="40" height="200" fill="#85B7EB" stroke="#185FA5" stroke-width="0.5"/>
<rect x="530" y="180" width="40" height="120" fill="#85B7EB" stroke="#185FA5" stroke-width="0.5"/>
<line x1="80" y1="300" x2="600" y2="300" stroke="#3D3D3A" stroke-width="0.5"/>
<line x1="380" y1="80" x2="380" y2="305" stroke="#993C1D" stroke-width="2" stroke-dasharray="6 4"/>
<text x="380" y="65" font-family="sans-serif" font-size="14" font-weight="500" text-anchor="middle" fill="#3D3D3A">Mean</text>
<line x1="450" y1="80" x2="450" y2="305" stroke="#0F6E56" stroke-width="2"/>
<text x="450" y="65" font-family="sans-serif" font-size="14" font-weight="500" text-anchor="middle" fill="#3D3D3A">Median</text>
<text x="335" y="330" font-family="sans-serif" font-size="12" text-anchor="middle" fill="#73726c">← Long tail to the left</text>
<text x="335" y="350" font-family="sans-serif" font-size="12" text-anchor="middle" fill="#73726c">Mean is pulled toward the tail; median stays with the bulk of the data</text>
</svg>