<svg xmlns="http://www.w3.org/2000/svg" viewBox="0 0 680 420">
<text x="170" y="30" font-family="sans-serif" font-size="14" font-weight="600" text-anchor="middle" fill="#993C1D">Misleading: truncated y-axis</text>
<line x1="60" y1="320" x2="320" y2="320" stroke="#3D3D3A" stroke-width="1"/>
<line x1="60" y1="60" x2="60" y2="320" stroke="#3D3D3A" stroke-width="1"/>
<line x1="60" y1="280" x2="55" y2="280" stroke="#3D3D3A" stroke-width="0.5"/>
<line x1="60" y1="220" x2="55" y2="220" stroke="#3D3D3A" stroke-width="0.5"/>
<line x1="60" y1="160" x2="55" y2="160" stroke="#3D3D3A" stroke-width="0.5"/>
<line x1="60" y1="100" x2="55" y2="100" stroke="#3D3D3A" stroke-width="0.5"/>
<text x="50" y="284" font-family="sans-serif" font-size="10" text-anchor="end" fill="#73726c">82</text>
<text x="50" y="224" font-family="sans-serif" font-size="10" text-anchor="end" fill="#73726c">84</text>
<text x="50" y="164" font-family="sans-serif" font-size="10" text-anchor="end" fill="#73726c">86</text>
<text x="50" y="104" font-family="sans-serif" font-size="10" text-anchor="end" fill="#73726c">88</text>
<rect x="100" y="260" width="60" height="60" fill="#85B7EB" stroke="#185FA5" stroke-width="0.5"/>
<rect x="200" y="80" width="60" height="240" fill="#85B7EB" stroke="#185FA5" stroke-width="0.5"/>
<text x="130" y="345" font-family="sans-serif" font-size="11" text-anchor="middle" fill="#3D3D3A">Drug A</text>
<text x="230" y="345" font-family="sans-serif" font-size="11" text-anchor="middle" fill="#3D3D3A">Drug B</text>
<text x="130" y="255" font-family="sans-serif" font-size="10" text-anchor="middle" fill="#3D3D3A">83%</text>
<text x="230" y="75" font-family="sans-serif" font-size="10" text-anchor="middle" fill="#3D3D3A">87%</text>
<text x="170" y="378" font-family="sans-serif" font-size="11" text-anchor="middle" fill="#993C1D" font-style="italic">Looks like Drug B is much better</text>
<text x="170" y="395" font-family="sans-serif" font-size="11" text-anchor="middle" fill="#993C1D" font-style="italic">— but the y-axis starts at 82%, not 0</text>
<text x="510" y="30" font-family="sans-serif" font-size="14" font-weight="600" text-anchor="middle" fill="#0F6E56">Honest: full y-axis from 0</text>
<line x1="400" y1="320" x2="660" y2="320" stroke="#3D3D3A" stroke-width="1"/>
<line x1="400" y1="60" x2="400" y2="320" stroke="#3D3D3A" stroke-width="1"/>
<line x1="400" y1="320" x2="395" y2="320" stroke="#3D3D3A" stroke-width="0.5"/>
<line x1="400" y1="270" x2="395" y2="270" stroke="#3D3D3A" stroke-width="0.5"/>
<line x1="400" y1="220" x2="395" y2="220" stroke="#3D3D3A" stroke-width="0.5"/>
<line x1="400" y1="170" x2="395" y2="170" stroke="#3D3D3A" stroke-width="0.5"/>
<line x1="400" y1="120" x2="395" y2="120" stroke="#3D3D3A" stroke-width="0.5"/>
<line x1="400" y1="70" x2="395" y2="70" stroke="#3D3D3A" stroke-width="0.5"/>
<text x="390" y="324" font-family="sans-serif" font-size="10" text-anchor="end" fill="#73726c">0</text>
<text x="390" y="274" font-family="sans-serif" font-size="10" text-anchor="end" fill="#73726c">20</text>
<text x="390" y="224" font-family="sans-serif" font-size="10" text-anchor="end" fill="#73726c">40</text>
<text x="390" y="174" font-family="sans-serif" font-size="10" text-anchor="end" fill="#73726c">60</text>
<text x="390" y="124" font-family="sans-serif" font-size="10" text-anchor="end" fill="#73726c">80</text>
<text x="390" y="74" font-family="sans-serif" font-size="10" text-anchor="end" fill="#73726c">100</text>
<rect x="440" y="113" width="60" height="207" fill="#85B7EB" stroke="#185FA5" stroke-width="0.5"/>
<rect x="540" y="103" width="60" height="217" fill="#85B7EB" stroke="#185FA5" stroke-width="0.5"/>
<text x="470" y="345" font-family="sans-serif" font-size="11" text-anchor="middle" fill="#3D3D3A">Drug A</text>
<text x="570" y="345" font-family="sans-serif" font-size="11" text-anchor="middle" fill="#3D3D3A">Drug B</text>
<text x="470" y="108" font-family="sans-serif" font-size="10" text-anchor="middle" fill="#3D3D3A">83%</text>
<text x="570" y="98" font-family="sans-serif" font-size="10" text-anchor="middle" fill="#3D3D3A">87%</text>
<text x="510" y="378" font-family="sans-serif" font-size="11" text-anchor="middle" fill="#0F6E56" font-style="italic">A 4-point difference now looks like</text>
<text x="510" y="395" font-family="sans-serif" font-size="11" text-anchor="middle" fill="#0F6E56" font-style="italic">what it actually is — small</text>
</svg>