<svg xmlns="http://www.w3.org/2000/svg" viewBox="0 0 680 420">
<text x="340" y="30" font-family="sans-serif" font-size="16" font-weight="600" text-anchor="middle" fill="#3D3D3A">Poisson distribution example</text>
<text x="340" y="50" font-family="sans-serif" font-size="13" text-anchor="middle" fill="#73726c">Number of new flu cases per week in a region (average rate λ = 5)</text>
<line x1="80" y1="340" x2="640" y2="340" stroke="#3D3D3A" stroke-width="1"/>
<line x1="80" y1="80" x2="80" y2="340" stroke="#3D3D3A" stroke-width="1"/>
<line x1="80" y1="320" x2="75" y2="320" stroke="#3D3D3A" stroke-width="0.5"/>
<line x1="80" y1="280" x2="75" y2="280" stroke="#3D3D3A" stroke-width="0.5"/>
<line x1="80" y1="240" x2="75" y2="240" stroke="#3D3D3A" stroke-width="0.5"/>
<line x1="80" y1="200" x2="75" y2="200" stroke="#3D3D3A" stroke-width="0.5"/>
<line x1="80" y1="160" x2="75" y2="160" stroke="#3D3D3A" stroke-width="0.5"/>
<line x1="80" y1="120" x2="75" y2="120" stroke="#3D3D3A" stroke-width="0.5"/>
<text x="70" y="324" font-family="sans-serif" font-size="10" text-anchor="end" fill="#73726c">0.03</text>
<text x="70" y="284" font-family="sans-serif" font-size="10" text-anchor="end" fill="#73726c">0.06</text>
<text x="70" y="244" font-family="sans-serif" font-size="10" text-anchor="end" fill="#73726c">0.09</text>
<text x="70" y="204" font-family="sans-serif" font-size="10" text-anchor="end" fill="#73726c">0.12</text>
<text x="70" y="164" font-family="sans-serif" font-size="10" text-anchor="end" fill="#73726c">0.15</text>
<text x="70" y="124" font-family="sans-serif" font-size="10" text-anchor="end" fill="#73726c">0.18</text>
<text x="40" y="210" font-family="sans-serif" font-size="13" text-anchor="middle" fill="#3D3D3A" transform="rotate(-90 40 210)">Probability</text>
<rect x="92" y="296" width="24" height="44" fill="#E8C896" stroke="#A87B3D" stroke-width="0.5"/>
<rect x="120" y="234" width="24" height="106" fill="#E8C896" stroke="#A87B3D" stroke-width="0.5"/>
<rect x="148" y="167" width="24" height="173" fill="#E8C896" stroke="#A87B3D" stroke-width="0.5"/>
<rect x="176" y="115" width="24" height="225" fill="#E8C896" stroke="#A87B3D" stroke-width="0.5"/>
<rect x="204" y="105" width="24" height="235" fill="#E8C896" stroke="#A87B3D" stroke-width="0.5"/>
<rect x="232" y="105" width="24" height="235" fill="#E8C896" stroke="#A87B3D" stroke-width="0.5"/>
<rect x="260" y="125" width="24" height="215" fill="#E8C896" stroke="#A87B3D" stroke-width="0.5"/>
<rect x="288" y="165" width="24" height="175" fill="#E8C896" stroke="#A87B3D" stroke-width="0.5"/>
<rect x="316" y="218" width="24" height="122" fill="#E8C896" stroke="#A87B3D" stroke-width="0.5"/>
<rect x="344" y="265" width="24" height="75" fill="#E8C896" stroke="#A87B3D" stroke-width="0.5"/>
<rect x="372" y="295" width="24" height="45" fill="#E8C896" stroke="#A87B3D" stroke-width="0.5"/>
<rect x="400" y="315" width="24" height="25" fill="#E8C896" stroke="#A87B3D" stroke-width="0.5"/>
<rect x="428" y="326" width="24" height="14" fill="#E8C896" stroke="#A87B3D" stroke-width="0.5"/>
<rect x="456" y="333" width="24" height="7" fill="#E8C896" stroke="#A87B3D" stroke-width="0.5"/>
<rect x="484" y="337" width="24" height="3" fill="#E8C896" stroke="#A87B3D" stroke-width="0.3"/>
<rect x="512" y="339" width="24" height="1" fill="#E8C896" stroke="#A87B3D" stroke-width="0.3"/>
<rect x="540" y="339" width="24" height="1" fill="#E8C896" stroke="#A87B3D" stroke-width="0.3"/>
<rect x="568" y="339" width="24" height="1" fill="#E8C896" stroke="#A87B3D" stroke-width="0.3"/>
<rect x="596" y="339" width="24" height="1" fill="#E8C896" stroke="#A87B3D" stroke-width="0.3"/>
<rect x="624" y="339" width="16" height="1" fill="#E8C896" stroke="#A87B3D" stroke-width="0.3"/>
<text x="104" y="358" font-family="sans-serif" font-size="10" text-anchor="middle" fill="#73726c">0</text>
<text x="132" y="358" font-family="sans-serif" font-size="10" text-anchor="middle" fill="#73726c">1</text>
<text x="160" y="358" font-family="sans-serif" font-size="10" text-anchor="middle" fill="#73726c">2</text>
<text x="188" y="358" font-family="sans-serif" font-size="10" text-anchor="middle" fill="#73726c">3</text>
<text x="216" y="358" font-family="sans-serif" font-size="10" text-anchor="middle" fill="#73726c">4</text>
<text x="244" y="358" font-family="sans-serif" font-size="10" text-anchor="middle" fill="#73726c">5</text>
<text x="272" y="358" font-family="sans-serif" font-size="10" text-anchor="middle" fill="#73726c">6</text>
<text x="300" y="358" font-family="sans-serif" font-size="10" text-anchor="middle" fill="#73726c">7</text>
<text x="328" y="358" font-family="sans-serif" font-size="10" text-anchor="middle" fill="#73726c">8</text>
<text x="356" y="358" font-family="sans-serif" font-size="10" text-anchor="middle" fill="#73726c">9</text>
<text x="384" y="358" font-family="sans-serif" font-size="10" text-anchor="middle" fill="#73726c">10</text>
<text x="412" y="358" font-family="sans-serif" font-size="10" text-anchor="middle" fill="#73726c">11</text>
<text x="440" y="358" font-family="sans-serif" font-size="10" text-anchor="middle" fill="#73726c">12</text>
<text x="468" y="358" font-family="sans-serif" font-size="10" text-anchor="middle" fill="#73726c">13</text>
<text x="496" y="358" font-family="sans-serif" font-size="10" text-anchor="middle" fill="#73726c">14</text>
<text x="524" y="358" font-family="sans-serif" font-size="10" text-anchor="middle" fill="#73726c">15</text>
<text x="552" y="358" font-family="sans-serif" font-size="10" text-anchor="middle" fill="#73726c">16</text>
<text x="580" y="358" font-family="sans-serif" font-size="10" text-anchor="middle" fill="#73726c">17</text>
<text x="608" y="358" font-family="sans-serif" font-size="10" text-anchor="middle" fill="#73726c">18</text>
<text x="340" y="385" font-family="sans-serif" font-size="13" text-anchor="middle" fill="#3D3D3A">Number of cases per week</text>
<text x="340" y="405" font-family="sans-serif" font-size="11" text-anchor="middle" fill="#73726c" font-style="italic">Mean = λ = 5  ·  Standard deviation = √λ ≈ 2.24  ·  Note the right-skewed shape</text>
</svg>