<svg xmlns="http://www.w3.org/2000/svg" viewBox="0 0 680 420">
<text x="340" y="30" font-family="sans-serif" font-size="16" font-weight="600" text-anchor="middle" fill="#3D3D3A">Comparing length of stay between treatment groups</text>
<text x="155" y="145" font-family="sans-serif" font-size="12" text-anchor="end" fill="#3D3D3A" font-weight="500">New drug</text>
<text x="155" y="160" font-family="sans-serif" font-size="11" text-anchor="end" fill="#73726c">(n = 50)</text>
<line x1="208" y1="115" x2="208" y2="175" stroke="#185FA5" stroke-width="1.5"/>
<line x1="208" y1="145" x2="232" y2="145" stroke="#185FA5" stroke-width="1.5"/>
<rect x="232" y="115" width="72" height="60" fill="#85B7EB" stroke="#185FA5" stroke-width="1.5"/>
<line x1="256" y1="115" x2="256" y2="175" stroke="#185FA5" stroke-width="2.5"/>
<line x1="304" y1="145" x2="352" y2="145" stroke="#185FA5" stroke-width="1.5"/>
<line x1="352" y1="115" x2="352" y2="175" stroke="#185FA5" stroke-width="1.5"/>
<text x="155" y="245" font-family="sans-serif" font-size="12" text-anchor="end" fill="#3D3D3A" font-weight="500">Standard drug</text>
<text x="155" y="260" font-family="sans-serif" font-size="11" text-anchor="end" fill="#73726c">(n = 50)</text>
<line x1="232" y1="215" x2="232" y2="275" stroke="#185FA5" stroke-width="1.5"/>
<line x1="232" y1="245" x2="256" y2="245" stroke="#185FA5" stroke-width="1.5"/>
<rect x="256" y="215" width="120" height="60" fill="#85B7EB" stroke="#185FA5" stroke-width="1.5"/>
<line x1="304" y1="215" x2="304" y2="275" stroke="#185FA5" stroke-width="2.5"/>
<line x1="376" y1="245" x2="448" y2="245" stroke="#185FA5" stroke-width="1.5"/>
<line x1="448" y1="215" x2="448" y2="275" stroke="#185FA5" stroke-width="1.5"/>
<circle cx="592" cy="245" r="5" fill="#FFFFFF" stroke="#185FA5" stroke-width="1.5"/>
<line x1="160" y1="320" x2="640" y2="320" stroke="#3D3D3A" stroke-width="1"/>
<line x1="160" y1="320" x2="160" y2="325" stroke="#3D3D3A" stroke-width="0.5"/>
<line x1="208" y1="320" x2="208" y2="325" stroke="#3D3D3A" stroke-width="0.5"/>
<line x1="256" y1="320" x2="256" y2="325" stroke="#3D3D3A" stroke-width="0.5"/>
<line x1="304" y1="320" x2="304" y2="325" stroke="#3D3D3A" stroke-width="0.5"/>
<line x1="352" y1="320" x2="352" y2="325" stroke="#3D3D3A" stroke-width="0.5"/>
<line x1="400" y1="320" x2="400" y2="325" stroke="#3D3D3A" stroke-width="0.5"/>
<line x1="448" y1="320" x2="448" y2="325" stroke="#3D3D3A" stroke-width="0.5"/>
<line x1="496" y1="320" x2="496" y2="325" stroke="#3D3D3A" stroke-width="0.5"/>
<line x1="544" y1="320" x2="544" y2="325" stroke="#3D3D3A" stroke-width="0.5"/>
<line x1="592" y1="320" x2="592" y2="325" stroke="#3D3D3A" stroke-width="0.5"/>
<text x="160" y="340" font-family="sans-serif" font-size="11" text-anchor="middle" fill="#73726c">0</text>
<text x="208" y="340" font-family="sans-serif" font-size="11" text-anchor="middle" fill="#73726c">2</text>
<text x="256" y="340" font-family="sans-serif" font-size="11" text-anchor="middle" fill="#73726c">4</text>
<text x="304" y="340" font-family="sans-serif" font-size="11" text-anchor="middle" fill="#73726c">6</text>
<text x="352" y="340" font-family="sans-serif" font-size="11" text-anchor="middle" fill="#73726c">8</text>
<text x="400" y="340" font-family="sans-serif" font-size="11" text-anchor="middle" fill="#73726c">10</text>
<text x="448" y="340" font-family="sans-serif" font-size="11" text-anchor="middle" fill="#73726c">12</text>
<text x="496" y="340" font-family="sans-serif" font-size="11" text-anchor="middle" fill="#73726c">14</text>
<text x="544" y="340" font-family="sans-serif" font-size="11" text-anchor="middle" fill="#73726c">16</text>
<text x="592" y="340" font-family="sans-serif" font-size="11" text-anchor="middle" fill="#73726c">18</text>
<text x="400" y="370" font-family="sans-serif" font-size="13" text-anchor="middle" fill="#3D3D3A">Length of stay (days)</text>
</svg>